<?xml version="1.0" encoding="utf-8"?>
<!-- Generator: Adobe Illustrator 16.0.0, SVG Export Plug-In . SVG Version: 6.00 Build 0)  -->
<!DOCTYPE svg PUBLIC "-//W3C//DTD SVG 1.1//EN" "http://www.w3.org/Graphics/SVG/1.1/DTD/svg11.dtd">
<svg version="1.1" id="Layer_1" xmlns="http://www.w3.org/2000/svg" xmlns:xlink="http://www.w3.org/1999/xlink" x="0px" y="0px"
	 width="843.065px" height="216.794px" viewBox="0 0 843.065 216.794" enable-background="new 0 0 843.065 216.794"
	 xml:space="preserve">
<g>
	<g opacity="0.86">
		<g>
			<defs>
				<rect id="SVGID_1_" x="200.49" y="151.913" width="655.543" height="67.882"/>
			</defs>
			<clipPath id="SVGID_2_">
				<use xlink:href="#SVGID_1_"  overflow="visible"/>
			</clipPath>
			<g clip-path="url(#SVGID_2_)">
				<text transform="matrix(1 0 0 1 250.1313 201.144)"><tspan x="0" y="0" fill="#838483" font-family="'NexaLight'" font-size="57.9204" letter-spacing="79">G</tspan><tspan x="117.289" y="0" fill="#838483" font-family="'NexaLight'" font-size="57.9204" letter-spacing="80">RO</tspan><tspan x="349.259" y="0" fill="#838483" font-family="'NexaLight'" font-size="57.9204" letter-spacing="80">U</tspan><tspan x="467.126" y="0" fill="#838483" font-family="'NexaLight'" font-size="57.9204">P</tspan></text>
			</g>
		</g>
	</g>
	<path fill="#605F5F" d="M228.6,62.794l30.159,0.575l-0.08,4.23l-1.422,74.561l17.931,0.341l1.502-78.791l30.158,0.576l0.311-16.302
		c-27.576-0.525-50.807-0.97-78.248-1.492L228.6,62.794z"/>
	<polygon fill="#605F5F" points="375.416,89.638 375.1,106.211 374.367,144.656 392.164,144.997 393.977,49.903 376.181,49.563 	"/>
	
		<rect x="352.984" y="73.911" transform="matrix(0.019 -0.9998 0.9998 0.019 257.1441 456.6379)" fill="#605F5F" width="16.575" height="46.738"/>
	<polygon fill="#605F5F" points="330.958,48.672 313.025,48.33 311.211,143.423 329.145,143.765 329.878,105.321 330.193,88.748 	
		"/>
	<polygon fill="#605F5F" points="769.563,89.981 769.247,106.554 768.515,144.998 786.312,145.339 788.124,50.245 770.328,49.906 	
		"/>
	
		<rect x="738.21" y="74.728" transform="matrix(0.019 -0.9998 0.9998 0.019 634.2571 842.5994)" fill="#605F5F" width="16.575" height="46.737"/>
	<path fill="#605F5F" d="M488.049,68.83l0.331-17.39l-71.183-1.357c-0.113,5.9-0.225,11.819-0.338,17.729h17.802L488.049,68.83z"/>
	<polyline fill="#605F5F" points="415.385,145.176 486.566,146.535 486.904,128.875 433.516,127.855 415.714,127.855 	"/>
	<polyline fill="#605F5F" points="416.131,105.981 433.926,106.391 485.411,107.374 485.73,90.664 434.243,89.681 416.448,89.354 	
		"/>
	<polygon fill="#605F5F" points="580.377,50.411 570.219,70.194 587.105,111.012 593.986,127.859 601.659,145.945 621.224,146.317 	
		"/>
	<polygon fill="#605F5F" points="566.728,71.194 576.887,51.411 557.326,51.04 512.857,145.318 532.283,145.688 540.774,127.913 
		548.294,111.339 	"/>
	<polygon fill="#605F5F" points="553.52,113.157 545.999,129.73 595.721,130.676 588.84,113.831 	"/>
	<polygon fill="#605F5F" points="647.274,51.745 632.737,51.468 630.925,146.56 648.855,146.903 650.077,82.783 649.504,54.679 	"/>
	<polygon fill="#605F5F" points="699.516,51.4 698.387,110.493 698.387,138.734 698.387,110.493 655.145,53.581 655.719,81.686 
		704.488,146.893 704.49,146.758 715.63,146.971 717.446,51.741 	"/>
	<polygon fill="#605F5F" points="258.333,63.368 277.511,63.708 277.432,67.596 258.247,67.596 	"/>
</g>
<rect x="-66.132" y="-281.605" fill="none" width="1000" height="1000"/>
<g>
	<polygon fill="#B6D66A" points="194.187,138.55 110.852,135.971 125.541,130.392 189.229,130.75 	"/>
	<path fill="#B6D66A" d="M165.36,130.617c-0.78,1.812-1.75,3.763-2.956,5.834c-9.935,20.993-35.038,34.239-58.071,31.185
		c-11.122-1.476-23.029-7.873-32.442-15.038c-0.091-0.047-0.17-0.11-0.242-0.181c-0.237-0.143-0.515-0.387-0.876-0.779
		c-14.462-15.65-20.831-35.01-15.549-55.732c4.846-19.011,17.094-31.643,34.901-39.227c8.936-3.807,18.311-4.437,27.917-3.882
		C93.75,42.26,52.849,47.791,29.053,79.526C2.835,114.489,9.788,163.025,41.764,189.218c12.174,9.972,25.723,16.125,40.297,17.92
		c0,0,0.001,0,0.002,0c6.201,0.765,12.586,0.749,19.133-0.106c24.488-3.201,42.756-13.611,55.163-30.371
		c0.043-0.264,0.184-0.507,0.445-0.623c7.152-9.865,12.321-21.877,15.559-35.888c0.665-2.688,0.95-6.059,0.985-9.489L165.36,130.617
		z"/>
	<path fill="#009350" d="M196.43,39.617c-1.822,4.182-4.591,8.529-6.894,12.427c-10.657,18.033-24.725,33.197-40.375,46.966
		c-0.75,0.659-1.429,1.336-2.197,2.006c-23.57,20.56-35.401,24.066-46.498,28.352c-11.638,4.495-24.831,7.744-38.133,9.564
		c0.194-0.142,0.41-0.287,0.658-0.433c12.411-7.231,24.966-14.306,35.014-24.788c18.02-18.798,23.06-40.472,14.009-65.221
		c-4.076-11.148-9.253-21.649-16.221-31.275c-0.786-1.084-1.545-2.428-2.803-3.189c0.333-0.256-0.334,0.255,0,0
		c5.26,0.417,6.412,1.452,8.611,2.683c11.056,6.192,19.641,16.089,30.073,23.24c11.291,7.739,24.179,10.943,37.784,7.726
		c6.736-1.593,13.11-4.716,19.646-7.151c1.628-0.606,3.25-1.229,4.876-1.844l3.625-1.451L196.43,39.617z"/>
	<path fill="#7FC146" d="M182.076,22.669c-0.048,10.815-8.854,19.543-19.669,19.496c-10.814-0.048-19.542-8.854-19.495-19.669
		C142.96,11.681,151.767,2.952,162.581,3C173.396,3.048,182.124,11.854,182.076,22.669"/>
	<path fill="#7FC146" d="M197.562,37.421c0,0-38.139,55.375-87.192,59.554c0,0-1.487,3.819-17.211,21.376
		C93.159,118.351,152.106,105.694,197.562,37.421"/>
	<path fill="#7FC146" d="M197.607,37.229c0,0-26.728,37.947-82.272,23.209c0,0,1.64,6.045,1.058,12.702
		C116.393,73.141,168.152,83.3,197.607,37.229"/>
	<path fill="#0E9148" d="M165.626,112.431c0,0,5.848,10.347,6.321,11.984c10.219,3.736,16.083,7.534,22.24,14.135
		c0,0-21.38-34.341-37.154-51.979c0,0-15.736,13.888-30.48,22.188c0,0,2.6,0.674,6.84,1.934c1.871-1.171,6.351-4.024,8.738-5.963
		C142.131,104.73,156.928,102.504,165.626,112.431 M156.245,92.753c5.511,6.162,8.938,14.933,8.938,14.933
		c-4.616-5.184-19.607-6.788-19.586-7.182C150.748,97.605,156.245,92.753,156.245,92.753"/>
	<polygon fill="#0E9148" points="171.948,124.415 178.223,137.736 194.188,138.55 184.204,123.156 	"/>
	<g>
		<defs>
			<path id="SVGID_3_" d="M29.235,78.979C2.721,114.339,9.752,163.424,42.09,189.914c17.552,14.379,37.926,20.914,60.106,18.015
				c39.512-5.165,63.019-28.879,71.973-67.64c1.888-7.633,0.751-20.721-0.527-25.247c-0.943-3.338-1.527-6.779-2.271-10.173
				c-0.385,0.069-0.77,0.14-1.154,0.209v11.161c0,0,0.997,8.082-6.119,20.31c-10.046,21.231-35.436,34.628-58.729,31.539
				c-11.248-1.492-23.291-7.961-32.81-15.208c-0.092-0.047-0.171-0.111-0.244-0.183c-0.24-0.144-0.521-0.391-0.887-0.787
				c-14.626-15.828-21.066-35.408-15.725-56.364C60.604,76.317,72.991,63.543,91,55.872c9.037-3.85,18.519-4.486,28.234-3.925
				c-7.359-3.192-16.228-4.926-25.686-4.927C71.434,47.02,46.091,56.499,29.235,78.979"/>
		</defs>
		<clipPath id="SVGID_4_">
			<use xlink:href="#SVGID_3_"  overflow="visible"/>
		</clipPath>
		<path clip-path="url(#SVGID_4_)" fill="none" stroke="#FFFFFF" stroke-miterlimit="10" d="M87.933,209.218
			c8.849,2.655,18.248,3.329,27.402,2.134"/>
		<path clip-path="url(#SVGID_4_)" fill="none" stroke="#FFFFFF" stroke-miterlimit="10" d="M58.233,95.296
			c-12.774,11.468-18.897,28.824-18.986,45.726c-0.092,17.551,5.784,35.457,17.58,48.629c6.814,7.61,15.482,13.483,24.913,17.357"/>
		<path clip-path="url(#SVGID_4_)" fill="none" stroke="#FFFFFF" stroke-miterlimit="10" d="M105.8,67.883
			C73.137,47.718,25,67.625,10.916,101.088c-7.645,18.163-8.064,36.743-0.18,54.499"/>
		<path clip-path="url(#SVGID_4_)" fill="none" stroke="#FFFFFF" stroke-miterlimit="10" d="M160.793,174.895
			c20.592-9,36.268-29.152,41.159-51.739"/>
		<path clip-path="url(#SVGID_4_)" fill="none" stroke="#FFFFFF" stroke-miterlimit="10" d="M74.626,145.9
			c13.46,29.698,51.527,42.387,81.452,31.022"/>
	</g>
</g>
<rect x="-66.132" y="-281.605" fill="none" width="1000" height="1000"/>
</svg>
