<?xml version="1.0" encoding="utf-8"?>
<!-- Generator: Adobe Illustrator 15.0.0, SVG Export Plug-In . SVG Version: 6.00 Build 0)  -->
<!DOCTYPE svg PUBLIC "-//W3C//DTD SVG 1.1//EN" "http://www.w3.org/Graphics/SVG/1.1/DTD/svg11.dtd">
<svg version="1.1" id="Capa_1" xmlns="http://www.w3.org/2000/svg" xmlns:xlink="http://www.w3.org/1999/xlink" x="0px" y="0px"
	 width="100px" height="91.976px" viewBox="256 350.013 100 91.976" enable-background="new 256 350.013 100 91.976"
	 xml:space="preserve">
<g>
	<g>
		<g>
			<path fill="#333333" d="M356,384.357v-19.271c0-3.002-2.442-5.445-5.445-5.445h-89.109c-3.003,0-5.445,2.443-5.445,5.445v19.271
				c0,1.568,0.667,2.983,1.732,3.978c-1.065,0.995-1.732,2.41-1.732,3.978v19.271c0,3.003,2.442,5.445,5.445,5.445h38.93v8.342
				h-6.886c-1.486,0-2.734,1.026-3.082,2.405h-21.881c-1.601,0-2.904,1.303-2.904,2.904v5.442c0,1.602,1.302,2.904,2.904,2.904
				h21.793c0.114,1.651,1.49,2.961,3.17,2.961h25.021c1.68,0,3.056-1.31,3.17-2.961h21.793c1.602,0,2.903-1.303,2.903-2.904v-5.443
				c0-1.601-1.302-2.903-2.903-2.903h-21.882c-0.348-1.38-1.596-2.405-3.081-2.405h-6.886v-8.342h38.93
				c3.003,0,5.445-2.442,5.445-5.445v-19.271c0-1.569-0.668-2.983-1.732-3.978C355.332,387.341,356,385.926,356,384.357z
				 M268.557,436.092v-5.381h21.751v5.381H268.557L268.557,436.092z M321.691,430.711h21.752v5.381h-21.752V430.711z
				 M318.511,428.305c0.136,0,0.247,0.111,0.247,0.247v10.255c0,0.136-0.111,0.247-0.247,0.247H293.49
				c-0.136,0-0.247-0.111-0.247-0.247v-10.255c0-0.136,0.111-0.247,0.247-0.247H318.511L318.511,428.305z M303.31,425.371v-8.342
				h5.381v8.342H303.31L303.31,425.371z M353.065,411.584c0,1.385-1.126,2.511-2.511,2.511h-89.109
				c-1.385,0-2.511-1.127-2.511-2.511v-19.271c0-1.385,1.126-2.511,2.511-2.511h89.109c1.385,0,2.511,1.126,2.511,2.511V411.584z
				 M353.065,384.357c0,1.384-1.126,2.511-2.511,2.511h-89.109c-1.385,0-2.511-1.126-2.511-2.511v-19.271
				c0-1.385,1.126-2.511,2.511-2.511h89.109c1.385,0,2.511,1.126,2.511,2.511V384.357z"/>
		</g>
	</g>
	<g>
		<g>
			<path fill="#333333" d="M352.297,352.54c-0.896-1.559-2.57-2.527-4.368-2.527h-83.857c-1.828,0-3.516,0.993-4.404,2.59
				c-0.394,0.708-0.139,1.602,0.569,1.995c0.226,0.125,0.47,0.186,0.712,0.185c0.515,0,1.015-0.272,1.283-0.754
				c0.371-0.667,1.076-1.081,1.84-1.081h83.857c0.751,0,1.45,0.404,1.825,1.055c0.404,0.702,1.301,0.944,2.003,0.54
				C352.459,354.139,352.701,353.242,352.297,352.54z"/>
		</g>
	</g>
	<g>
		<g>
			<path fill="#333333" d="M344.377,365.366h-12.546c-1.664,0-3.018,1.354-3.018,3.018v12.545c0,1.665,1.354,3.018,3.018,3.018
				h12.546c1.664,0,3.019-1.354,3.019-3.018v-12.545C347.396,366.719,346.041,365.366,344.377,365.366z M344.461,380.929
				c0,0.046-0.037,0.083-0.084,0.083h-12.545c-0.047,0-0.084-0.038-0.084-0.083v-12.546c0-0.046,0.037-0.083,0.084-0.083h12.545
				c0.047,0,0.084,0.038,0.084,0.083V380.929z"/>
		</g>
	</g>
	<g>
		<g>
			<path fill="#333333" d="M344.377,392.592h-12.546c-1.664,0-3.018,1.354-3.018,3.018v12.545c0,1.664,1.354,3.019,3.018,3.019
				h12.546c1.664,0,3.019-1.354,3.019-3.019V395.61C347.396,393.946,346.041,392.592,344.377,392.592z M344.461,408.155
				c0,0.047-0.037,0.084-0.084,0.084h-12.545c-0.047,0-0.084-0.037-0.084-0.084V395.61c0-0.046,0.037-0.084,0.084-0.084h12.545
				c0.047,0,0.084,0.038,0.084,0.084V408.155z"/>
		</g>
	</g>
	<g>
		<g>
			<path fill="#333333" d="M300.146,366.063h-34.344c-0.81,0-1.467,0.657-1.467,1.467c0,0.81,0.657,1.467,1.467,1.467h34.344
				c0.811,0,1.467-0.657,1.467-1.467C301.613,366.72,300.956,366.063,300.146,366.063z"/>
		</g>
	</g>
	<g>
		<g>
			<path fill="#333333" d="M313.922,366.063h-5.952c-0.81,0-1.467,0.657-1.467,1.467c0,0.81,0.657,1.467,1.467,1.467h5.952
				c0.811,0,1.468-0.657,1.468-1.467C315.39,366.72,314.732,366.063,313.922,366.063z"/>
		</g>
	</g>
	<g>
		<g>
			<path fill="#333333" d="M313.922,373.189h-5.952c-0.81,0-1.467,0.657-1.467,1.467c0,0.811,0.657,1.467,1.467,1.467h5.952
				c0.811,0,1.468-0.657,1.468-1.467C315.39,373.846,314.732,373.189,313.922,373.189z"/>
		</g>
	</g>
	<g>
		<g>
			<path fill="#333333" d="M300.146,373.189h-34.344c-0.81,0-1.467,0.657-1.467,1.467c0,0.811,0.657,1.467,1.467,1.467h34.344
				c0.811,0,1.467-0.657,1.467-1.467C301.613,373.846,300.956,373.189,300.146,373.189z"/>
		</g>
	</g>
	<g>
		<g>
			<path fill="#333333" d="M313.922,380.315h-5.952c-0.81,0-1.467,0.657-1.467,1.467c0,0.811,0.657,1.467,1.467,1.467h5.952
				c0.811,0,1.468-0.657,1.468-1.467S314.732,380.315,313.922,380.315z"/>
		</g>
	</g>
	<g>
		<g>
			<path fill="#333333" d="M300.146,380.315h-34.344c-0.81,0-1.467,0.657-1.467,1.467c0,0.811,0.657,1.467,1.467,1.467h34.344
				c0.811,0,1.467-0.657,1.467-1.467S300.956,380.315,300.146,380.315z"/>
		</g>
	</g>
	<g>
		<g>
			<path fill="#333333" d="M300.146,393.355h-34.344c-0.81,0-1.467,0.657-1.467,1.467c0,0.811,0.657,1.467,1.467,1.467h34.344
				c0.811,0,1.467-0.657,1.467-1.467S300.956,393.355,300.146,393.355z"/>
		</g>
	</g>
	<g>
		<g>
			<path fill="#333333" d="M313.922,393.355h-5.952c-0.81,0-1.467,0.657-1.467,1.467c0,0.811,0.657,1.467,1.467,1.467h5.952
				c0.811,0,1.468-0.657,1.468-1.467S314.732,393.355,313.922,393.355z"/>
		</g>
	</g>
	<g>
		<g>
			<path fill="#333333" d="M313.922,400.481h-5.952c-0.81,0-1.467,0.657-1.467,1.468c0,0.81,0.657,1.467,1.467,1.467h5.952
				c0.811,0,1.468-0.657,1.468-1.467C315.39,401.139,314.732,400.481,313.922,400.481z"/>
		</g>
	</g>
	<g>
		<g>
			<path fill="#333333" d="M300.146,400.481h-34.344c-0.81,0-1.467,0.657-1.467,1.468c0,0.81,0.657,1.467,1.467,1.467h34.344
				c0.811,0,1.467-0.657,1.467-1.467C301.613,401.139,300.956,400.481,300.146,400.481z"/>
		</g>
	</g>
	<g>
		<g>
			<path fill="#333333" d="M313.922,407.607h-5.952c-0.81,0-1.467,0.657-1.467,1.467c0,0.811,0.657,1.468,1.467,1.468h5.952
				c0.811,0,1.468-0.657,1.468-1.468C315.39,408.265,314.732,407.607,313.922,407.607z"/>
		</g>
	</g>
	<g>
		<g>
			<path fill="#333333" d="M300.146,407.607h-34.344c-0.81,0-1.467,0.657-1.467,1.467c0,0.811,0.657,1.468,1.467,1.468h34.344
				c0.811,0,1.467-0.657,1.467-1.468C301.613,408.265,300.956,407.607,300.146,407.607z"/>
		</g>
	</g>
</g>
</svg>
